<svg xmlns="http://www.w3.org/2000/svg" viewBox="0 0 512 512"><rect width="512" height="512" rx="50" ry="50" fill="#290000"/><path d="M162.450 9.900L162.450 9.900Q142.200 9.900 126.225 7.650Q110.250 5.400 99 1.350Q87.750-2.700 82.350-7.200L82.350-7.200Q87.300-12.600 91.125-19.575Q94.950-26.550 98.325-36Q101.700-45.450 103.950-58.500L103.950-58.500L134.550-215.550Q138.600-238.050 148.275-249.300Q157.950-260.550 178.650-260.550L178.650-260.550Q191.250-260.550 198.675-255.600Q206.100-250.650 207.450-243.450L207.450-243.450Q195.750-237.600 191.925-225.900Q188.100-214.200 185.400-202.950L185.400-202.950L178.200-167.400L198.900-167.850Q225.900-168.750 242.100-176.850Q258.300-184.950 265.725-198.900Q273.150-212.850 272.700-229.500L272.700-229.500Q272.700-254.700 251.775-267.300Q230.850-279.900 189.900-279.900L189.900-279.900Q168.750-279.900 147.825-274.950Q126.900-270 109.575-259.425Q92.250-248.850 81.900-231.300Q71.550-213.750 71.550-188.550L71.550-188.550Q71.100-176.400 73.800-166.275Q76.500-156.150 83.700-143.100L83.700-143.100Q79.200-139.050 72.675-137.025Q66.150-135 59.850-135L59.850-135Q47.700-135 38.475-141.300Q29.250-147.600 24.075-159.300Q18.900-171 18.900-186.750L18.900-186.750Q18.900-219.150 40.050-246.375Q61.200-273.600 101.025-290.250Q140.850-306.900 197.100-306.900L197.100-306.900Q225.450-306.900 248.625-302.175Q271.800-297.450 288.450-288.225Q305.100-279 313.875-265.050Q322.650-251.100 322.650-232.650L322.650-232.650Q322.650-216.450 315.225-202.050Q307.800-187.650 294.300-176.400Q280.800-165.150 261-157.950L261-157.950Q276.750-153.450 288.900-144.900Q301.050-136.350 308.025-122.850Q315-109.350 314.100-91.350L314.100-91.350Q313.200-65.250 300.600-46.125Q288-27 266.850-14.625Q245.700-2.250 218.700 3.825Q191.700 9.900 162.450 9.900ZM171.900-19.800L171.900-19.800Q199.350-19.800 218.700-29.250Q238.050-38.700 248.625-55.575Q259.200-72.450 259.200-93.600L259.200-93.600Q259.200-119.700 238.500-129.375Q217.800-139.050 172.350-139.950L172.350-139.950L153.450-42.750Q151.650-34.650 148.950-29.250Q146.250-23.850 143.100-20.700L143.100-20.700Q149.400-20.250 156.600-20.025Q163.800-19.800 171.900-19.800Z" fill="#fff" transform="translate(85.22500038146973, 404.49998474121094)"/></svg>