<svg width="32" height="32" viewBox="0 0 32 32" fill="none" xmlns="http://www.w3.org/2000/svg">
  <rect width="32" height="32" rx="6" fill="#3B82F6"/>
  <path d="M16 6C20.4183 6 24 9.58172 24 14C24 16.7614 22.4776 19.1638 20.2426 20.4142L22.5355 22.7071C22.9261 23.0976 22.9261 23.7308 22.5355 24.1213C22.1450 24.5118 21.5118 24.5118 21.1213 24.1213L18.8284 21.8284C18.0395 22.2693 17.1462 22.5 16 22.5C11.5817 22.5 8 18.9183 8 14.5C8 10.0817 11.5817 6.5 16 6.5Z" fill="white"/>
  <circle cx="16" cy="14" r="4" fill="#3B82F6"/>
  <path d="M14 12L16 14L18 12" stroke="white" stroke-width="1.5" stroke-linecap="round" stroke-linejoin="round"/>
</svg>